<?xml version="1.0" encoding="UTF-8"?>
<svg width="256" height="256" version="1.1" viewBox="0 0 256 256" xmlns="http://www.w3.org/2000/svg">
  <path fill="white" d="m188.5 63-53.22 59.34-1.41 110.6c-0.4082 9.401-14.04 9.525-14.5 0 0 0-0.7422-58.16-1.447-112.8-5.072-5.307-50.2-52.67-50.2-52.67-6.284-6.964 3.167-16.6 10.27-10.47l39.58 36.33c-0.4824-37.22-0.8659-67.32-0.8659-67.32 0.3711-13.25 19.37-13.35 19.79 0l-0.8783 68.49 42.59-41.34c2.82-2.746 7.336-2.672 10.08 0.1484 2.622 2.697 2.66 6.964 0.1979 9.723z"/>
</svg>
