<?xml version="1.0" encoding="UTF-8"?>
<svg width="256" height="256" version="1.1" viewBox="0 0 256 256" xmlns="http://www.w3.org/2000/svg">
  <path fill="white" d="m218.7 203.2c-14.14 10.78-36.06 25.57-60.6 35.2-7.44 2.915-15.85 1.828-22.31-2.884-20.11-14.63-66.22-47.91-92.67-64.27-6.587-4.079-9.558-12.11-7.21-19.5 7.711-24.33 26.48-78.72 54.2-128.2 3.465-6.151 10.8-8.985 17.5-6.761 18.65 6.155 57.33 20.25 96.13 42.5 7.271 4.211 11.53 12.18 10.98 20.56l-3.323 51.74c-0.9613 14.92-11.49 27.76-26.12 30.87-1.243 0.2612-2.529 0.4598-3.856 0.606-13.98 1.324-27.31-6.174-33.44-18.81-4.18-8.516-5.946-19.75 2.779-31.56 0.7782-1.026 1.7-1.934 2.738-2.696 2.6-1.925 4.83-4.304 6.583-7.022 3.681-5.775 1.994-13.44-3.772-17.14-5.56-3.531-11.44-6.529-17.56-8.955-5.425-2.16-11.62-0.6408-15.43 3.783-9.706 11.18-18.26 23.31-25.52 36.22-6.721 12.32-5.799 27.4 2.372 38.81 10.87 15.05 23.82 28.5 38.44 39.95 5.295 4.149 11.97 6.118 18.67 5.507 12.84-1.129 35.84-3.469 57.31-7.252 5.451-1.047 8.558 6.005 4.106 9.321z"/>
</svg>
