<?xml version="1.0" encoding="UTF-8"?>
<svg width="256" height="256" version="1.1" viewBox="0 0 256 256" xmlns="http://www.w3.org/2000/svg">
  <path fill="white" d="m142.4 164c22.88-29.57 46.17-59.69 46.17-59.69 3.168-3.99 3.362-9.757 0.1494-14l-53.34-70.6c-3.571-4.856-11.19-4.901-14.79-0.0448l-53.34 69.65c-3.138 4.094-3.213 9.966 0.1793 14.15 0.02988 0.0299 24.03 29.81 49.34 61.2l-43.62 61.83c-5.932 8.995 6.56 18.09 13.31 9.847 0 0 22.08-28.55 43.12-55.76 23.77 29.48 45.29 56.17 45.32 56.18 7.456 8.637 20.26-1.449 13.79-10.68zm-12.94-17.35-37.88-50.79 36.34-54.51 36.58 55.6z"/>
</svg>
