<?xml version="1.0" encoding="UTF-8"?>
<svg width="256" height="256" version="1.1" viewBox="0 0 256 256" xmlns="http://www.w3.org/2000/svg">
  <path fill="white" d="m170.1 59.9-64.9 83.66c0.1323 41.86 0.2645 85.84 0.2645 85.84 0.0132 5.846-4.709 10.59-10.55 10.61-5.846 0.0132-10.59-4.695-10.61-10.54 0 0 0.6349-203.6 0.6349-203.6 0.5158-13.09 19.34-13.21 19.91 0 0 0 0.0661 22.31 0.0926 29.73l28.86-33.33c4.907-5.462 13.37 0.9523 9.457 7.142l-38.22 58.28c0.0265 10.16 0.0397 12.3 0.0794 24.03 20.95-23.91 53.62-61.21 53.62-61.21 6.428-6.944 16.97 1.719 11.37 9.377z"/>
</svg>
